<?xml version="1.0" standalone="no"?>
<!DOCTYPE svg PUBLIC "-//W3C//DTD SVG 20010904//EN"
 "http://www.w3.org/TR/2001/REC-SVG-20010904/DTD/svg10.dtd">
<svg version="1.0" xmlns="http://www.w3.org/2000/svg"
 width="251.000000pt" height="141.000000pt" viewBox="0 0 251.000000 141.000000"
 preserveAspectRatio="xMidYMid meet">

<g transform="translate(0.000000,141.000000) scale(0.100000,-0.100000)"
fill="#000000" stroke="none">
<path d="M1218 1323 l-56 -47 -118 -1 c-98 0 -131 -4 -187 -24 -85 -29 -84
-37 2 -11 83 26 271 27 271 1 0 -3 -20 -31 -45 -61 -24 -29 -74 -105 -111
-167 -41 -69 -73 -113 -83 -113 -13 0 -13 -2 -3 -9 21 -13 -12 -71 -41 -72
-17 -1 -18 -2 -4 -6 9 -2 17 -6 17 -7 0 -2 -45 -91 -100 -199 -55 -108 -100
-200 -100 -206 0 -45 67 58 186 286 65 124 71 132 104 138 19 4 84 25 143 47
98 37 112 40 145 30 112 -34 179 -125 169 -230 -6 -66 -49 -175 -102 -258 -65
-103 -170 -200 -288 -265 -65 -36 -54 -38 16 -3 123 62 283 206 342 308 130
223 88 402 -108 461 l-38 11 50 32 c62 41 96 93 95 146 -1 33 -9 46 -46 82
-25 24 -67 50 -96 60 -29 10 -52 22 -52 26 0 12 66 58 84 58 9 0 19 -7 23 -16
5 -14 8 -12 19 7 36 65 -11 66 -88 2z m10 -109 c28 -14 65 -41 83 -61 26 -30
30 -42 25 -71 -6 -41 -42 -83 -105 -123 -38 -25 -56 -29 -120 -31 -75 -1 -75
-1 -21 -7 l55 -6 -55 -24 c-79 -34 -162 -62 -168 -56 -3 3 2 21 11 40 13 27
23 35 44 36 24 2 25 2 6 6 -13 2 -23 7 -23 10 0 11 84 160 134 236 28 43 57
77 66 77 9 0 39 -12 68 -26z"/>
<path d="M744 1204 c-18 -14 -18 -14 6 -3 31 14 36 19 24 19 -6 0 -19 -7 -30
-16z"/>
<path d="M624 1118 l-19 -23 23 19 c21 18 27 26 19 26 -2 0 -12 -10 -23 -22z"/>
<path d="M580 1058 c-27 -45 -26 -89 3 -116 43 -40 159 -23 234 34 43 33 43
54 1 54 -23 0 -29 -3 -19 -9 47 -30 -102 -105 -173 -87 -57 14 -72 65 -36 124
11 17 17 32 15 32 -3 0 -14 -15 -25 -32z"/>
<path d="M792 854 c-23 -16 -30 -44 -11 -44 5 0 7 5 3 11 -4 7 4 20 17 30 29
23 22 25 -9 3z"/>
<path d="M605 745 c-5 -2 -36 -11 -69 -20 -75 -21 -69 -28 9 -9 87 20 126 18
132 -6 3 -11 8 -20 12 -20 13 0 31 24 31 42 0 15 -8 18 -52 17 -29 0 -57 -2
-63 -4z"/>
<path d="M334 632 c-81 -53 -156 -138 -201 -229 -34 -69 -38 -84 -38 -157 0
-67 4 -87 23 -117 65 -106 242 -85 378 43 71 67 159 177 149 186 -4 4 -17 -6
-29 -22 -120 -165 -185 -222 -276 -247 -119 -32 -210 46 -210 179 0 60 36 163
78 226 32 47 115 123 178 163 10 6 16 12 13 12 -3 1 -32 -16 -65 -37z"/>
<path d="M1323 623 c15 -2 37 -2 50 0 12 2 0 4 -28 4 -27 0 -38 -2 -22 -4z"/>
<path d="M1213 613 c9 -2 23 -2 30 0 6 3 -1 5 -18 5 -16 0 -22 -2 -12 -5z"/>
<path d="M1468 613 c6 -2 18 -2 25 0 6 3 1 5 -13 5 -14 0 -19 -2 -12 -5z"/>
<path d="M1158 603 c7 -3 16 -2 19 1 4 3 -2 6 -13 5 -11 0 -14 -3 -6 -6z"/>
<path d="M1065 581 c-28 -10 -68 -27 -91 -39 -112 -57 -212 -198 -219 -310
l-4 -57 9 53 c27 148 154 282 331 350 66 25 44 28 -26 3z"/>
<path d="M1502 558 c-16 -16 -15 -43 3 -58 11 -9 12 -17 4 -34 -10 -20 -9 -20
5 -2 18 23 46 14 46 -14 0 -11 -12 -48 -26 -81 -43 -103 -20 -136 51 -76 l40
34 0 -31 c0 -25 5 -32 23 -34 17 -3 38 12 86 62 l63 66 -10 -49 c-19 -96 10
-106 85 -28 31 31 48 44 45 32 -13 -42 -20 -80 -14 -75 3 3 17 34 31 70 28 68
60 109 114 142 54 34 59 14 23 -96 -17 -52 -28 -102 -25 -111 10 -26 48 -17
84 20 l34 35 10 -32 c10 -28 16 -33 48 -36 32 -3 43 3 90 46 29 27 54 53 55
58 1 5 10 30 20 55 27 72 -2 120 -63 105 -38 -10 -109 -81 -134 -134 -24 -52
-67 -102 -87 -102 -18 0 -16 34 7 108 24 78 26 122 5 122 -19 0 -91 -36 -100
-50 -13 -21 -24 -9 -18 22 5 27 4 30 -11 25 -10 -4 -20 -7 -22 -7 -3 0 -2 -5
1 -10 11 -18 -44 -123 -88 -167 -44 -46 -67 -54 -67 -24 0 34 39 147 60 174
25 31 26 50 3 45 -10 -2 -30 -28 -45 -59 -28 -60 -131 -179 -154 -179 -21 0
-17 39 12 100 38 81 54 129 44 135 -14 9 -39 -6 -34 -20 8 -20 -72 -170 -106
-199 -18 -14 -35 -24 -40 -21 -10 6 3 58 30 121 22 49 16 61 -39 84 -19 7 -31
20 -31 31 0 27 18 32 23 7 4 -16 5 -14 4 6 -2 33 -16 43 -35 24z m866 -69 c5
-41 -36 -139 -58 -139 -46 0 -62 52 -36 114 25 59 88 76 94 25z m-112 -107 c3
-14 17 -28 35 -36 l30 -13 -30 -32 c-40 -43 -75 -40 -79 7 -4 38 30 149 35
117 2 -11 6 -30 9 -43z"/>
<path d="M1480 420 c-6 -11 -8 -20 -6 -20 3 0 10 9 16 20 6 11 8 20 6 20 -3 0
-10 -9 -16 -20z"/>
<path d="M843 103 c15 -2 37 -2 50 0 12 2 0 4 -28 4 -27 0 -38 -2 -22 -4z"/>
</g>
</svg>
